<svg xmlns="http://www.w3.org/2000/svg" width="65" height="71"><g><g><g><g><path fill="green" d="M14.885 71.331c-4.281 0-5.061-3.994-5.964-8.617a38.374 38.374 0 0 0-3.183-10.476C2.103 45.081-.001 39.526-.001 32.309c0-7.418 4.751-12.211 12.1-12.211a22.36 22.36 0 0 1 8.231 1.533 10.387 10.387 0 0 0 3.463.818v2.283a12.372 12.372 0 0 1-4.221-.948 20.136 20.136 0 0 0-7.472-1.4c-6.15 0-9.821 3.712-9.821 9.929 0 6.794 1.93 11.883 5.492 18.9a40.8 40.8 0 0 1 3.388 11.071c.96 4.915 1.529 6.772 3.723 6.772 2.126 0 3.107-4.015 3.972-7.557.994-4.071 1.933-7.916 4.941-7.916v2.283c-1.216 0-2.052 3.423-2.724 6.175-1.061 4.35-2.268 9.29-6.186 9.29Z"/></g><g><path fill="green" d="M32.711 71.331c-3.919 0-5.125-4.94-6.19-9.3-.672-2.751-1.508-6.175-2.724-6.175v-2.279c3.009 0 3.947 3.845 4.941 7.916.865 3.542 1.846 7.557 3.972 7.557 2.194 0 2.764-1.857 3.724-6.773a40.8 40.8 0 0 1 3.387-11.071c3.562-7.013 5.492-12.1 5.492-18.9 0-6.217-3.671-9.929-9.822-9.929a20.138 20.138 0 0 0-7.472 1.4 12.373 12.373 0 0 1-4.222.948v-2.283a10.386 10.386 0 0 0 3.463-.818 22.363 22.363 0 0 1 8.23-1.533c7.353 0 12.1 4.794 12.1 12.211 0 7.216-2.1 12.772-5.739 19.929a38.414 38.414 0 0 0-3.178 10.482c-.9 4.624-1.68 8.618-5.962 8.618Z"/></g></g><g><path fill="green" d="M46.007 37.3c-1.742-.355-10.515-2.278-12.207-5.287-1.14-2.028-6.928-6.217-9.062-7.661l1.279-1.89c.831.562 8.165 5.573 9.772 8.432.873 1.553 6.766 3.373 10.673 4.169Z"/></g><g><path fill="green" d="M34.175 25.687a1.141 1.141 0 0 1-.8-.331 1.031 1.031 0 0 1-.143-.177.938.938 0 0 1-.108-.192 1.2 1.2 0 0 1-.086-.439 1.131 1.131 0 0 1 .337-.8 1.04 1.04 0 0 1 .171-.143 1.318 1.318 0 0 1 .2-.1 1.3 1.3 0 0 1 .211-.068 1.146 1.146 0 0 1 1.364 1.118.963.963 0 0 1-.023.228.949.949 0 0 1-.062.212 1.262 1.262 0 0 1-.1.194 1.485 1.485 0 0 1-.148.177 1.04 1.04 0 0 1-.171.143 1.266 1.266 0 0 1-.194.1 1.008 1.008 0 0 1-.217.063.943.943 0 0 1-.231.015Z"/></g><g><path fill="green" d="M37.029 29.212a1.134 1.134 0 0 1-.805-.337 1.126 1.126 0 0 1-.251-.371.836.836 0 0 1-.063-.212 1.091 1.091 0 0 1 0-.445 1.357 1.357 0 0 1 .063-.217 1.412 1.412 0 0 1 .108-.194 1.111 1.111 0 0 1 .143-.171 1.139 1.139 0 0 1 1.028-.314.916.916 0 0 1 .217.063.934.934 0 0 1 .194.108.993.993 0 0 1 .176.143 1.057 1.057 0 0 1 .138.171 1 1 0 0 1 .108.194.924.924 0 0 1 .062.217 1.066 1.066 0 0 1 0 .445.814.814 0 0 1-.062.212 1.128 1.128 0 0 1-.1.2 1.446 1.446 0 0 1-.143.171 1.01 1.01 0 0 1-.176.143.928.928 0 0 1-.194.108 1.372 1.372 0 0 1-.217.063.959.959 0 0 1-.226.023Z"/></g><g><path fill="green" d="M41.343 27.893a1.116 1.116 0 0 1-.8-.337 1.043 1.043 0 0 1-.143-.171 1.37 1.37 0 0 1-.109-.2 2.083 2.083 0 0 1-.062-.211 1.1 1.1 0 0 1 0-.445 1.268 1.268 0 0 1 .068-.217 1.062 1.062 0 0 1 .1-.194 1.428 1.428 0 0 1 .143-.177 1.475 1.475 0 0 1 .171-.143 1.313 1.313 0 0 1 .2-.1.936.936 0 0 1 .211-.063 1.217 1.217 0 0 1 .451 0 1.027 1.027 0 0 1 .212.063 1 1 0 0 1 .193.1 1.53 1.53 0 0 1 .177.143 2.2 2.2 0 0 1 .143.177 1.322 1.322 0 0 1 .1.194.974.974 0 0 1 .063.217 1.022 1.022 0 0 1 .023.223 1.559 1.559 0 0 1-.017.222 1.354 1.354 0 0 1-.069.211 1.383 1.383 0 0 1-.1.2 1.037 1.037 0 0 1-.143.171 1.369 1.369 0 0 1-.177.143 1.261 1.261 0 0 1-.193.108 1.488 1.488 0 0 1-.212.063 1.456 1.456 0 0 1-.23.023Z"/></g><g><path fill="green" d="M42.381 32.596a1.14 1.14 0 0 1-1.141-1.141 1.139 1.139 0 0 1 1.364-1.124 1.494 1.494 0 0 1 .211.068 1.025 1.025 0 0 1 .371.245 1.158 1.158 0 0 1 .336.81 1.148 1.148 0 0 1-1.141 1.141Z"/></g></g><g><g><g><path fill="green" d="M34.248 11.579h-2.876a4.356 4.356 0 0 1-4.351-4.351V4.352A4.356 4.356 0 0 1 31.372 0h2.876a4.356 4.356 0 0 1 4.351 4.352v2.876a4.356 4.356 0 0 1-4.351 4.351Zm-2.876-9.3a2.071 2.071 0 0 0-2.069 2.069v2.876a2.071 2.071 0 0 0 2.069 2.069h2.876a2.071 2.071 0 0 0 2.068-2.069V4.348a2.071 2.071 0 0 0-2.068-2.065Z"/></g><g><path fill="green" d="m65.171 11.036-16.459-.011-11.546-1.583.31-2.261 11.469 1.573h16.224Z"/></g><g><path fill="green" d="m37.608 5.29-.3-2.263L48.87 1.508h16.3v2.283H48.945Z"/></g></g></g><g><path fill="green" d="M31.669 10.438h2.283v4.011h-2.283z"/></g><g><path fill="green" d="M29.423 13.307h6.773v2.283h-6.773z"/></g></g></svg>