<svg xmlns="http://www.w3.org/2000/svg" width="65" height="63"><g><g><g><path fill="#3D95D8" d="M47.23 44.883a4.045 4.045 0 0 1-2.348-.748l-11.813-8.384a4.071 4.071 0 0 1-1.1-5.469l18.9-30.286 1.773 1.106-18.9 30.286a1.979 1.979 0 0 0 .534 2.659l11.813 8.38a1.98 1.98 0 0 0 2.686-.375l15.378-19.168 1.629 1.307-15.378 19.168a4.063 4.063 0 0 1-3.174 1.524Z"/></g><g><path fill="#3D95D8" d="M38.955 29.49 51.77 8.943l1.773 1.105-12.816 20.548z"/></g><g><path fill="#3D95D8" d="M37.553 48.357a2.532 2.532 0 0 1-1.47-.468l-3.647-2.588a2.551 2.551 0 0 1-.6-3.551l3.848-5.424a1.044 1.044 0 0 1 1.457-.248l6.1 4.326a1.044 1.044 0 0 1 .248 1.457l-3.848 5.424a2.547 2.547 0 0 1-2.088 1.072Zm-.774-9.971-3.244 4.572a.459.459 0 0 0 .109.639l3.648 2.588a.458.458 0 0 0 .639-.109l3.243-4.571Z"/></g></g><g><path fill="#3D95D8" d="M14.463 63.407c-6.119 0-10.664-1.162-12.911-3.326a4.716 4.716 0 0 1-1.551-3.432 7.242 7.242 0 0 1 2.1-5.28c1.743-1.728 4.385-2.587 7.8-2.558 4.674.042 6.48.607 10.843 1.974.626.2 1.308.409 2.062.641 5.344 1.643 10.109-3.178 10.157-3.227a1.045 1.045 0 0 1 1.767.486c1.066 4.517.7 7.863-1.105 10.232-3.032 3.969-9.453 4.186-15.663 4.4q-.76.025-1.516.053-1.02.038-1.983.037ZM9.723 50.9c-2.738 0-4.863.674-6.154 1.953a5.246 5.246 0 0 0-1.479 3.8A2.613 2.613 0 0 0 3 58.58c2.041 1.964 6.907 2.949 13.359 2.7.507-.019 1.016-.037 1.524-.054 5.724-.195 11.642-.4 14.075-3.578 1.187-1.554 1.543-3.774 1.074-6.758-2.073 1.59-6.177 3.969-10.846 2.531-.758-.233-1.443-.448-2.072-.644-4.394-1.375-5.874-1.839-10.238-1.878Z"/></g><g><path fill="#3D95D8" d="m5.939 56.623-1.006-1.831a15.626 15.626 0 0 1 10.377-1.161l-.471 2.035a13.748 13.748 0 0 0-8.9.957Z"/></g></g></svg>