<svg xmlns="http://www.w3.org/2000/svg" width="69" height="69" style=""><g><g><g><path fill="#3D95D8" d="M26.893 56.501c-3.769 0-4.444-3.46-5.227-7.466a32.635 32.635 0 0 0-2.7-8.9c-3.111-6.127-4.912-10.884-4.912-17.069 0-6.415 4.109-10.56 10.468-10.56a19.219 19.219 0 0 1 7.07 1.316 8.755 8.755 0 0 0 2.909.69v2.228a10.677 10.677 0 0 1-3.649-.817 17.059 17.059 0 0 0-6.33-1.189c-5.16 0-8.241 3.115-8.241 8.332 0 5.769 1.641 10.1 4.671 16.06a34.965 34.965 0 0 1 2.9 9.484c.819 4.2 1.264 5.665 3.039 5.665 1.7 0 2.527-3.369 3.253-6.342.862-3.528 1.676-6.861 4.353-6.861V43.3c-.928 0-1.687 3.106-2.188 5.162-.92 3.762-1.963 8.039-5.416 8.039Z" style=""/></g><g><path fill="#3D95D8" d="M42.104 56.501c-3.454 0-4.5-4.272-5.418-8.041-.5-2.056-1.26-5.162-2.188-5.162V41.07c2.677 0 3.491 3.333 4.352 6.861.726 2.973 1.549 6.342 3.253 6.342 1.775 0 2.22-1.469 3.039-5.665a34.964 34.964 0 0 1 2.9-9.484c3.029-5.965 4.67-10.291 4.67-16.06 0-5.217-3.08-8.332-8.241-8.332a17.059 17.059 0 0 0-6.33 1.189 10.658 10.658 0 0 1-3.648.817V14.51a8.762 8.762 0 0 0 2.909-.69 19.213 19.213 0 0 1 7.07-1.316c6.36 0 10.468 4.145 10.468 10.56 0 6.185-1.8 10.942-4.912 17.069a32.635 32.635 0 0 0-2.7 8.9c-.78 4.008-1.456 7.468-5.224 7.468Z"/></g></g><g><path fill="#3D95D8" d="M34.5 69a34.5 34.5 0 0 1 0-69 34.16 34.16 0 0 1 21.182 7.269l-1.369 1.757a31.954 31.954 0 0 0-19.813-6.8 32.263 32.263 0 1 0 26.719 14.168l1.843-1.252A34.5 34.5 0 0 1 34.5 68.997Z" style=""/></g><g><path fill="#3D95D8" d="M58.866 18.036a6.357 6.357 0 1 1 6.357-6.357 6.365 6.365 0 0 1-6.357 6.357Zm0-10.487a4.129 4.129 0 1 0 4.129 4.129 4.134 4.134 0 0 0-4.129-4.129Z"/></g></g></svg>